<svg width="335" height="106" viewBox="0 0 335 106" fill="none" xmlns="http://www.w3.org/2000/svg">
<mask id="path-1-inside-1_185_6852" fill="white">
<path d="M167.337 72.2178C194.719 72.2174 221.724 41.2692 249.046 43.0761C273.971 44.7244 295.131 46.8131 310.22 48.5131C324.495 50.1213 335 62.2647 335 76.6296C335 92.6277 322.031 105.597 306.033 105.597H28.9671C12.969 105.597 0 92.6277 0 76.6296C0 62.2647 10.5056 50.1213 24.7802 48.513C39.8045 46.8202 60.8487 44.742 85.635 43.0969C112.952 41.2839 139.959 72.2178 167.337 72.2178Z"/>
</mask>
<path d="M167.337 72.2178C194.719 72.2174 221.724 41.2692 249.046 43.0761C273.971 44.7244 295.131 46.8131 310.22 48.5131C324.495 50.1213 335 62.2647 335 76.6296C335 92.6277 322.031 105.597 306.033 105.597H28.9671C12.969 105.597 0 92.6277 0 76.6296C0 62.2647 10.5056 50.1213 24.7802 48.513C39.8045 46.8202 60.8487 44.742 85.635 43.0969C112.952 41.2839 139.959 72.2178 167.337 72.2178Z" fill="white"/>
<path d="M167.337 72.2178V73.2178H167.337L167.337 72.2178ZM85.635 43.0969L85.5687 42.0991L85.635 43.0969ZM249.046 43.0761L248.98 44.0739L249.046 43.0761ZM249.046 43.0761L248.98 44.0739C273.887 45.721 295.032 47.8082 310.108 49.5068L310.22 48.5131L310.332 47.5194C295.231 45.818 274.055 43.7278 249.112 42.0783L249.046 43.0761ZM306.033 105.597V104.597H28.9671V105.597V106.597H306.033V105.597ZM24.7802 48.513L24.8921 49.5067C39.904 47.8153 60.9328 45.7386 85.7012 44.0948L85.635 43.0969L85.5687 42.0991C60.7646 43.7454 39.7049 45.8251 24.6682 47.5192L24.7802 48.513ZM85.635 43.0969L85.7012 44.0948C99.0135 43.2112 112.328 50.3108 125.98 57.8528C132.759 61.5977 139.606 65.4374 146.474 68.3341C153.347 71.2329 160.307 73.2178 167.337 73.2178V72.2178V71.2178C160.678 71.2178 153.996 69.3359 147.251 66.4913C140.502 63.6445 133.757 59.864 126.947 56.1021C113.422 48.6305 99.574 41.1696 85.5687 42.0991L85.635 43.0969ZM0 76.6296H1C1 62.7563 11.1404 51.0561 24.8921 49.5067L24.7802 48.513L24.6682 47.5192C9.8708 49.1864 -1 61.7731 -1 76.6296H0ZM28.9671 105.597V104.597C13.5213 104.597 1 92.0754 1 76.6296H0H-1C-1 93.18 12.4167 106.597 28.9671 106.597V105.597ZM335 76.6297H334C334 92.0754 321.479 104.597 306.033 104.597V105.597V106.597C322.583 106.597 336 93.18 336 76.6297H335ZM310.22 48.5131L310.108 49.5068C323.86 51.0561 334 62.7563 334 76.6297H335H336C336 61.7731 325.129 49.1865 310.332 47.5194L310.22 48.5131ZM249.046 43.0761L249.112 42.0783C235.105 41.1519 221.256 48.618 207.73 56.094C200.92 59.858 194.175 63.6405 187.425 66.4888C180.68 69.3349 173.997 71.2177 167.337 71.2178L167.337 72.2178L167.337 73.2178C174.368 73.2177 181.329 71.2318 188.202 68.3315C195.071 65.4333 201.918 61.5916 208.698 57.8444C222.351 50.298 235.666 43.1934 248.98 44.0739L249.046 43.0761Z" fill="black" mask="url(#path-1-inside-1_185_6852)"/>
<circle cx="167.5" cy="31.5" r="31.5" fill="white"/>
</svg>
