<svg width="100" height="93" viewBox="0 0 100 93" fill="none" xmlns="http://www.w3.org/2000/svg">
<path fill-rule="evenodd" clip-rule="evenodd" d="M96.0355 30.743C93.4951 24.7105 89.9152 19.3736 85.3353 14.7334C80.7541 10.1316 75.4425 6.53514 69.4761 3.98292C63.2413 1.31505 56.7357 0 50 0C43.2255 0 36.7593 1.31505 30.5234 3.98292C24.5569 6.53514 19.2065 10.1316 14.6266 14.7334C10.0079 19.3736 6.46618 24.7105 3.92575 30.743C1.30839 36.969 0 43.5041 0 50.2717C0 53.5974 0.307718 56.9225 1.00067 60.3644L16.4353 71.5391L18.86 90.6035H44.0717L45.5727 91.531C46.8817 92.5369 48.3058 93 49.9994 93C51.6549 93 53.1177 92.5369 54.3873 91.531L55.7726 90.6035H81.2545L83.6411 71.5391L98.9987 60.3644C99.6535 56.9225 100 53.5968 100 50.2717C100 43.5041 98.6916 36.969 96.0355 30.743Z" fill="#CC2229"/>
<path fill-rule="evenodd" clip-rule="evenodd" d="M88.6457 36.4664C87.6445 32.2127 85.4893 28.5773 82.1402 25.6386L58.6996 66.2035L79.4459 21.733C76.6747 18.0592 73.1717 15.5459 68.7457 14.1146L54.3881 64.5403L64.8968 12.0651C61.6247 10.2474 58.1605 9.31934 54.465 9.31934L52.1172 9.47391L50.0389 64.0754L47.8449 9.47391L45.5353 9.31934C41.8403 9.31934 38.3374 10.2474 35.104 12.0651L45.4965 64.5403L31.2552 14.1152C26.8285 15.5465 23.2493 18.0598 20.555 21.7336L41.4169 66.2041L17.8601 25.6392C14.5116 28.5779 12.3558 32.2133 11.3552 36.467L37.6063 68.8719L10.5853 41.6092C9.35323 44.3939 8.73779 47.2942 8.73779 50.2718C8.73779 51.9344 8.93041 53.7125 9.39199 55.6081L24.5576 66.7451L26.5596 81.7098H44.9968L47.6142 83.7204C48.3459 84.2231 49.1157 84.4555 50.0007 84.4939C50.8475 84.4561 51.6562 84.2231 52.3104 83.7204L55.0816 81.7098H73.5957L75.4826 66.7451L90.6089 55.6081C91.0323 53.7125 91.2637 51.9344 91.2637 50.2718C91.2637 47.2942 90.6089 44.3939 89.4162 41.6092L62.5496 68.8708L88.6457 36.4664Z" fill="#F6D330"/>
</svg>
