<svg width="72" height="72" viewBox="0 0 72 72" fill="none" xmlns="http://www.w3.org/2000/svg">
<g filter="url(#filter0_d_326_5061)">
<path d="M11.7055 23.7702C11.2737 21.8252 11.34 19.8026 11.8982 17.89C12.4565 15.9775 13.4886 14.2368 14.8989 12.8295C16.3092 11.4221 18.052 10.3936 19.9657 9.8394C21.8795 9.28516 23.9022 9.22309 25.8463 9.65896C26.9163 7.98543 28.3905 6.6082 30.1328 5.65422C31.8751 4.70023 33.8295 4.2002 35.8159 4.2002C37.8023 4.2002 39.7567 4.70023 41.499 5.65422C43.2413 6.6082 44.7154 7.98543 45.7855 9.65896C47.7325 9.22119 49.7587 9.28298 51.6755 9.83857C53.5923 10.3942 55.3374 11.4255 56.7486 12.8367C58.1597 14.2478 59.1911 15.993 59.7467 17.9098C60.3023 19.8265 60.3641 21.8527 59.9263 23.7998C61.5998 24.8698 62.977 26.344 63.931 28.0863C64.885 29.8286 65.3851 31.783 65.3851 33.7694C65.3851 35.7558 64.885 37.7102 63.931 39.4525C62.977 41.1948 61.5998 42.6689 59.9263 43.739C60.3622 45.6831 60.3001 47.7058 59.7459 49.6195C59.1916 51.5333 58.1631 53.2761 56.7558 54.6864C55.3484 56.0967 53.6078 57.1288 51.6952 57.687C49.7826 58.2453 47.7601 58.3116 45.815 57.8798C44.7464 59.5597 43.2711 60.9429 41.5258 61.9011C39.7806 62.8594 37.8217 63.3617 35.8307 63.3617C33.8396 63.3617 31.8808 62.8594 30.1355 61.9011C28.3902 60.9429 26.915 59.5597 25.8463 57.8798C23.9022 58.3157 21.8795 58.2536 19.9657 57.6994C18.052 57.1451 16.3092 56.1166 14.8989 54.7093C13.4886 53.3019 12.4565 51.5613 11.8982 49.6487C11.34 47.7361 11.2737 45.7136 11.7055 43.7685C10.0191 42.7013 8.63002 41.2249 7.66748 39.4766C6.70494 37.7284 6.2002 35.7651 6.2002 33.7694C6.2002 31.7737 6.70494 29.8104 7.66748 28.0621C8.63002 26.3139 10.0191 24.8374 11.7055 23.7702Z" fill="#00FFA1" fill-opacity="0.14" shape-rendering="crispEdges"/>
<path d="M11.7055 23.7702C11.2737 21.8252 11.34 19.8026 11.8982 17.89C12.4565 15.9775 13.4886 14.2368 14.8989 12.8295C16.3092 11.4221 18.052 10.3936 19.9657 9.8394C21.8795 9.28516 23.9022 9.22309 25.8463 9.65896C26.9163 7.98543 28.3905 6.6082 30.1328 5.65422C31.8751 4.70023 33.8295 4.2002 35.8159 4.2002C37.8023 4.2002 39.7567 4.70023 41.499 5.65422C43.2413 6.6082 44.7154 7.98543 45.7855 9.65896C47.7325 9.22119 49.7587 9.28298 51.6755 9.83857C53.5923 10.3942 55.3374 11.4255 56.7486 12.8367C58.1597 14.2478 59.1911 15.993 59.7467 17.9098C60.3023 19.8265 60.3641 21.8527 59.9263 23.7998C61.5998 24.8698 62.977 26.344 63.931 28.0863C64.885 29.8286 65.3851 31.783 65.3851 33.7694C65.3851 35.7558 64.885 37.7102 63.931 39.4525C62.977 41.1948 61.5998 42.6689 59.9263 43.739C60.3622 45.6831 60.3001 47.7058 59.7459 49.6195C59.1916 51.5333 58.1631 53.2761 56.7558 54.6864C55.3484 56.0967 53.6078 57.1288 51.6952 57.687C49.7826 58.2453 47.7601 58.3116 45.815 57.8798C44.7464 59.5597 43.2711 60.9429 41.5258 61.9011C39.7806 62.8594 37.8217 63.3617 35.8307 63.3617C33.8396 63.3617 31.8808 62.8594 30.1355 61.9011C28.3902 60.9429 26.915 59.5597 25.8463 57.8798C23.9022 58.3157 21.8795 58.2536 19.9657 57.6994C18.052 57.1451 16.3092 56.1166 14.8989 54.7093C13.4886 53.3019 12.4565 51.5613 11.8982 49.6487C11.34 47.7361 11.2737 45.7136 11.7055 43.7685C10.0191 42.7013 8.63002 41.2249 7.66748 39.4766C6.70494 37.7284 6.2002 35.7651 6.2002 33.7694C6.2002 31.7737 6.70494 29.8104 7.66748 28.0621C8.63002 26.3139 10.0191 24.8374 11.7055 23.7702Z" stroke="url(#paint0_linear_326_5061)" stroke-width="5" stroke-linecap="round" stroke-linejoin="round" shape-rendering="crispEdges"/>
</g>
<path d="M35.8154 21.9355V45.6022" stroke="white" stroke-width="4" stroke-linecap="round" stroke-linejoin="round"/>
<path d="M23.9819 33.769H47.6486" stroke="white" stroke-width="4" stroke-linecap="round" stroke-linejoin="round"/>
<defs>
<filter id="filter0_d_326_5061" x="0.000195265" y="0.000195265" width="71.5851" height="71.5616" filterUnits="userSpaceOnUse" color-interpolation-filters="sRGB">
<feFlood flood-opacity="0" result="BackgroundImageFix"/>
<feColorMatrix in="SourceAlpha" type="matrix" values="0 0 0 0 0 0 0 0 0 0 0 0 0 0 0 0 0 0 127 0" result="hardAlpha"/>
<feOffset dy="2"/>
<feGaussianBlur stdDeviation="1.85"/>
<feComposite in2="hardAlpha" operator="out"/>
<feColorMatrix type="matrix" values="0 0 0 0 0.0117647 0 0 0 0 0.282353 0 0 0 0 0.258824 0 0 0 1 0"/>
<feBlend mode="normal" in2="BackgroundImageFix" result="effect1_dropShadow_326_5061"/>
<feBlend mode="normal" in="BackgroundImageFix" in2="effect1_dropShadow_326_5061" result="BackgroundImageFix"/>
<feBlend mode="normal" in="SourceGraphic" in2="BackgroundImageFix" result="shape"/>
</filter>
<linearGradient id="paint0_linear_326_5061" x1="47.6486" y1="8.62325" x2="21.0236" y2="61.8733" gradientUnits="userSpaceOnUse">
<stop offset="0.0290341" stop-color="#BEFFE7"/>
<stop offset="0.346154" stop-color="#03B070"/>
<stop offset="0.651901" stop-color="#BEFFE7"/>
<stop offset="0.985577" stop-color="#00DE8C"/>
</linearGradient>
</defs>
</svg>
