<svg width="75" height="75" viewBox="0 0 75 75" fill="none" xmlns="http://www.w3.org/2000/svg">
<g filter="url(#filter0_d_326_5065)">
<path d="M13.3051 25.3698C12.8733 23.4248 12.9396 21.4022 13.4978 19.4897C14.0561 17.5771 15.0882 15.8364 16.4985 14.4291C17.9088 13.0217 19.6516 11.9933 21.5653 11.439C23.4791 10.8848 25.5018 10.8227 27.4459 11.2586C28.516 9.58504 29.9901 8.20781 31.7324 7.25383C33.4747 6.29984 35.4291 5.7998 37.4155 5.7998C39.4019 5.7998 41.3563 6.29984 43.0986 7.25383C44.8409 8.20781 46.315 9.58504 47.3851 11.2586C49.3321 10.8208 51.3583 10.8826 53.2751 11.4382C55.1919 11.9938 56.937 13.0251 58.3482 14.4363C59.7594 15.8474 60.7907 17.5926 61.3463 19.5094C61.9019 21.4262 61.9637 23.4523 61.5259 25.3994C63.1994 26.4695 64.5767 27.9436 65.5306 29.6859C66.4846 31.4282 66.9847 33.3826 66.9847 35.369C66.9847 37.3554 66.4846 39.3098 65.5306 41.0521C64.5767 42.7944 63.1994 44.2685 61.5259 45.3386C61.9618 47.2827 61.8997 49.3054 61.3455 51.2191C60.7912 53.1329 59.7627 54.8757 58.3554 56.286C56.948 57.6963 55.2074 58.7284 53.2948 59.2866C51.3822 59.8449 49.3597 59.9112 47.4147 59.4794C46.346 61.1593 44.8707 62.5425 43.1254 63.5007C41.3802 64.459 39.4213 64.9614 37.4303 64.9614C35.4392 64.9614 33.4804 64.459 31.7351 63.5007C29.9898 62.5425 28.5146 61.1593 27.4459 59.4794C25.5018 59.9153 23.4791 59.8532 21.5653 59.299C19.6516 58.7447 17.9088 57.7162 16.4985 56.3089C15.0882 54.9015 14.0561 53.1609 13.4978 51.2483C12.9396 49.3357 12.8733 47.3132 13.3051 45.3681C11.6187 44.3009 10.2296 42.8245 9.26709 41.0762C8.30455 39.328 7.7998 37.3647 7.7998 35.369C7.7998 33.3733 8.30455 31.41 9.26709 29.6617C10.2296 27.9135 11.6187 26.4371 13.3051 25.3698Z" fill="#00FFA1" fill-opacity="0.14" shape-rendering="crispEdges"/>
<path d="M13.3051 25.3698C12.8733 23.4248 12.9396 21.4022 13.4978 19.4897C14.0561 17.5771 15.0882 15.8364 16.4985 14.4291C17.9088 13.0217 19.6516 11.9933 21.5653 11.439C23.4791 10.8848 25.5018 10.8227 27.4459 11.2586C28.516 9.58504 29.9901 8.20781 31.7324 7.25383C33.4747 6.29984 35.4291 5.7998 37.4155 5.7998C39.4019 5.7998 41.3563 6.29984 43.0986 7.25383C44.8409 8.20781 46.315 9.58504 47.3851 11.2586C49.3321 10.8208 51.3583 10.8826 53.2751 11.4382C55.1919 11.9938 56.937 13.0251 58.3482 14.4363C59.7594 15.8474 60.7907 17.5926 61.3463 19.5094C61.9019 21.4262 61.9637 23.4523 61.5259 25.3994C63.1994 26.4695 64.5767 27.9436 65.5306 29.6859C66.4846 31.4282 66.9847 33.3826 66.9847 35.369C66.9847 37.3554 66.4846 39.3098 65.5306 41.0521C64.5767 42.7944 63.1994 44.2685 61.5259 45.3386C61.9618 47.2827 61.8997 49.3054 61.3455 51.2191C60.7912 53.1329 59.7627 54.8757 58.3554 56.286C56.948 57.6963 55.2074 58.7284 53.2948 59.2866C51.3822 59.8449 49.3597 59.9112 47.4147 59.4794C46.346 61.1593 44.8707 62.5425 43.1254 63.5007C41.3802 64.459 39.4213 64.9614 37.4303 64.9614C35.4392 64.9614 33.4804 64.459 31.7351 63.5007C29.9898 62.5425 28.5146 61.1593 27.4459 59.4794C25.5018 59.9153 23.4791 59.8532 21.5653 59.299C19.6516 58.7447 17.9088 57.7162 16.4985 56.3089C15.0882 54.9015 14.0561 53.1609 13.4978 51.2483C12.9396 49.3357 12.8733 47.3132 13.3051 45.3681C11.6187 44.3009 10.2296 42.8245 9.26709 41.0762C8.30455 39.328 7.7998 37.3647 7.7998 35.369C7.7998 33.3733 8.30455 31.41 9.26709 29.6617C10.2296 27.9135 11.6187 26.4371 13.3051 25.3698Z" stroke="url(#paint0_linear_326_5065)" stroke-width="5" stroke-linecap="round" stroke-linejoin="round" shape-rendering="crispEdges"/>
</g>
<path d="M37.415 23.5352V47.2018" stroke="#034842" stroke-width="4" stroke-linecap="round" stroke-linejoin="round"/>
<path d="M25.5815 35.3687H49.2482" stroke="#034842" stroke-width="4" stroke-linecap="round" stroke-linejoin="round"/>
<defs>
<filter id="filter0_d_326_5065" x="-0.000195503" y="-0.000195503" width="74.7851" height="74.7616" filterUnits="userSpaceOnUse" color-interpolation-filters="sRGB">
<feFlood flood-opacity="0" result="BackgroundImageFix"/>
<feColorMatrix in="SourceAlpha" type="matrix" values="0 0 0 0 0 0 0 0 0 0 0 0 0 0 0 0 0 0 127 0" result="hardAlpha"/>
<feOffset dy="2"/>
<feGaussianBlur stdDeviation="2.65"/>
<feComposite in2="hardAlpha" operator="out"/>
<feColorMatrix type="matrix" values="0 0 0 0 0.0117647 0 0 0 0 0.282353 0 0 0 0 0.258824 0 0 0 0.38 0"/>
<feBlend mode="normal" in2="BackgroundImageFix" result="effect1_dropShadow_326_5065"/>
<feBlend mode="normal" in="BackgroundImageFix" in2="effect1_dropShadow_326_5065" result="BackgroundImageFix"/>
<feBlend mode="normal" in="SourceGraphic" in2="BackgroundImageFix" result="shape"/>
</filter>
<linearGradient id="paint0_linear_326_5065" x1="49.2482" y1="10.2229" x2="22.6233" y2="63.4729" gradientUnits="userSpaceOnUse">
<stop offset="0.0290341" stop-color="#81E6C1"/>
<stop offset="0.346154" stop-color="#02AD6E"/>
<stop offset="0.651901" stop-color="#81E6C1"/>
<stop offset="0.985577" stop-color="#00AA6B"/>
</linearGradient>
</defs>
</svg>
