<svg width="351" height="345" viewBox="0 0 351 345" fill="none" xmlns="http://www.w3.org/2000/svg">
<g filter="url(#filter0_d_327_8675)">
<path d="M55.1852 243.254C63.5893 240.773 72.7435 243.484 78.285 250.283C101.186 278.431 136.073 296.41 175.169 296.41C214.266 296.41 250.117 277.926 273.003 249.119C278.514 242.182 287.76 239.379 296.256 241.891L310.645 246.133C318.054 248.323 325.938 244.617 328.984 237.511C338.154 216.178 343.037 192.548 342.501 167.724C340.557 78.0428 267.125 5.22309 177.45 4.01325C83.9796 2.7881 7.80688 78.2113 7.80688 171.445C7.80688 195.534 12.8891 218.429 22.0433 239.134C25.1509 246.164 32.9733 249.824 40.3364 247.649L55.1852 243.269V243.254Z" fill="url(#paint0_linear_327_8675)"/>
</g>
<mask id="path-2-inside-1_327_8675" fill="white">
<path d="M318.74 207.18C321.443 207.829 324.168 206.165 324.728 203.442C329.066 182.346 328.926 160.555 324.294 139.484C319.302 116.772 309.223 95.4891 294.815 77.2369C280.408 58.9847 262.047 44.239 241.115 34.11C220.183 23.9811 197.227 18.7328 173.973 18.7604C150.72 18.7879 127.775 24.0906 106.868 34.2691C85.9602 44.4477 67.6343 59.2369 53.2698 77.5231C38.9053 95.8094 28.8765 117.116 23.9386 139.839C19.3572 160.922 19.2687 182.714 23.6562 203.799C24.2225 206.52 26.9518 208.178 29.6531 207.523V207.523C32.3544 206.868 34.004 204.148 33.444 201.426C29.4116 181.821 29.5166 161.571 33.7747 141.977C38.3893 120.742 47.7614 100.83 61.1853 83.741C74.6093 66.6521 91.7352 52.8314 111.274 43.3193C130.812 33.8072 152.254 28.8518 173.985 28.826C195.716 28.8003 217.17 33.7049 236.731 43.1706C256.292 52.6363 273.45 66.4165 286.915 83.4735C300.379 100.531 309.798 120.42 314.463 141.644C318.768 161.228 318.921 181.478 314.935 201.092C314.381 203.816 316.037 206.531 318.74 207.18V207.18Z"/>
</mask>
<path d="M318.74 207.18C321.443 207.829 324.168 206.165 324.728 203.442C329.066 182.346 328.926 160.555 324.294 139.484C319.302 116.772 309.223 95.4891 294.815 77.2369C280.408 58.9847 262.047 44.239 241.115 34.11C220.183 23.9811 197.227 18.7328 173.973 18.7604C150.72 18.7879 127.775 24.0906 106.868 34.2691C85.9602 44.4477 67.6343 59.2369 53.2698 77.5231C38.9053 95.8094 28.8765 117.116 23.9386 139.839C19.3572 160.922 19.2687 182.714 23.6562 203.799C24.2225 206.52 26.9518 208.178 29.6531 207.523V207.523C32.3544 206.868 34.004 204.148 33.444 201.426C29.4116 181.821 29.5166 161.571 33.7747 141.977C38.3893 120.742 47.7614 100.83 61.1853 83.741C74.6093 66.6521 91.7352 52.8314 111.274 43.3193C130.812 33.8072 152.254 28.8518 173.985 28.826C195.716 28.8003 217.17 33.7049 236.731 43.1706C256.292 52.6363 273.45 66.4165 286.915 83.4735C300.379 100.531 309.798 120.42 314.463 141.644C318.768 161.228 318.921 181.478 314.935 201.092C314.381 203.816 316.037 206.531 318.74 207.18V207.18Z" stroke="#E1E3EA" stroke-width="38.9171" mask="url(#path-2-inside-1_327_8675)"/>
<rect x="24.5044" y="212.695" width="27.4868" height="27.4868" rx="13.7434" fill="#C2FB7E"/>
<rect x="299.373" y="211.677" width="27.4868" height="27.4868" rx="13.7434" fill="#C2FB7E"/>
<rect x="48.3069" y="42.4985" width="253.089" height="253.089" rx="126.544" stroke="url(#paint1_linear_327_8675)" stroke-width="3"/>
<rect x="144.51" y="310.884" width="64.6153" height="33.9504" rx="16.9752" fill="#C2FB7E"/>
<rect x="97.4731" y="284.506" width="45.9973" height="33.9504" rx="16.9752" transform="rotate(24.898 97.4731 284.506)" fill="#034842"/>
<rect x="60.2361" y="246.01" width="45.9973" height="33.9504" rx="16.9752" transform="rotate(47.2389 60.2361 246.01)" fill="#034842"/>
<rect width="45.9973" height="33.9504" rx="16.9752" transform="matrix(-0.907058 0.421005 0.421005 0.907058 255.37 286.267)" fill="#034842"/>
<rect width="45.9973" height="33.9504" rx="16.9752" transform="matrix(-0.731091 0.682279 0.682279 0.731091 293.417 247.271)" fill="#034842"/>
<defs>
<filter id="filter0_d_327_8675" x="3.57628e-05" y="-9.46522e-05" width="350.348" height="308.025" filterUnits="userSpaceOnUse" color-interpolation-filters="sRGB">
<feFlood flood-opacity="0" result="BackgroundImageFix"/>
<feColorMatrix in="SourceAlpha" type="matrix" values="0 0 0 0 0 0 0 0 0 0 0 0 0 0 0 0 0 0 127 0" result="hardAlpha"/>
<feOffset dy="3.80822"/>
<feGaussianBlur stdDeviation="3.90342"/>
<feComposite in2="hardAlpha" operator="out"/>
<feColorMatrix type="matrix" values="0 0 0 0 0 0 0 0 0 0 0 0 0 0 0 0 0 0 0.12 0"/>
<feBlend mode="normal" in2="BackgroundImageFix" result="effect1_dropShadow_327_8675"/>
<feBlend mode="normal" in="BackgroundImageFix" in2="effect1_dropShadow_327_8675" result="BackgroundImageFix"/>
<feBlend mode="normal" in="SourceGraphic" in2="BackgroundImageFix" result="shape"/>
</filter>
<linearGradient id="paint0_linear_327_8675" x1="175.174" y1="3.99854" x2="175.174" y2="296.41" gradientUnits="userSpaceOnUse">
<stop stop-color="white"/>
<stop offset="1" stop-color="white"/>
</linearGradient>
<linearGradient id="paint1_linear_327_8675" x1="174.851" y1="43.9985" x2="174.851" y2="294.087" gradientUnits="userSpaceOnUse">
<stop stop-color="#C2FB7E"/>
<stop offset="0.759615" stop-color="white"/>
</linearGradient>
</defs>
</svg>
